<?xml version="1.0" encoding="utf-8"?>
<!-- Generator: Adobe Illustrator 26.2.1, SVG Export Plug-In . SVG Version: 6.00 Build 0)  -->
<svg version="1.1" id="Слой_1" xmlns="http://www.w3.org/2000/svg" xmlns:xlink="http://www.w3.org/1999/xlink" x="0px" y="0px"
	 viewBox="0 0 753 295" style="enable-background:new 0 0 753 295;" xml:space="preserve">
<style type="text/css">
	.st0{fill:#2964CC;}
</style>
<g>
	<path class="st0" d="M259.3,13.45c2.12-2.46,4.97-0.81,5.27-0.42c1.51,1.99,3.56,6.62,3.83,7.09l29.15,54.74
		c0.15,0.27,0.23,0.57,0.23,0.87c0,1.78-2.31,2.46-3.28,0.98c0,0-5.68-6.59-9.81-12.06s-4.26-5.21-9.51-17.51
		s-8.72-13.36-8.72-13.36c-0.69-1.05-2.22-1.08-2.95-0.06c0,0-9.44,11.05-11.42,15.94s-9.34,10.83-12.18,17.01
		c-2.84,6.18-17.64,24.62-17.64,24.62c-0.07,0.1-0.16,0.19-0.25,0.28c-1.55,1.42-3.72,6.27-4.66,8.47
		c-0.28,0.67-0.13,1.44,0.38,1.96l1,1c0.58,0.58,0.69,1.48,0.27,2.19l-12.2,20.24c-1.02,1.69,1.05,3.54,2.62,2.34l12.68-16.3
		c1.16-1.87,1.92-1.52,0.96,0.81l-13.55,23.28c-0.2,0.24-0.33,0.53-0.37,0.84l-7.03,44.51c-0.11,0.68,0.19,1.36,0.75,1.75
		l17.23,11.83l2.58-0.85l0.67-3.05c0.08-0.37,0.58-0.43,0.75-0.1l1.75,3.35c0.06,0.12,0.11,0.24,0.14,0.37l1.35,5.25
		c0.9,0.61,1.04,1.88,0.31,2.68l-3.24,3.54l-4.19,11.87l-12,5.8l-27.57,30.08c-0.34,0.37-0.82,0.58-1.32,0.58h-15.9
		c-1.54,0-2.36-1.81-1.34-2.96l10.75-12.29c0.49-0.55,1.71-10.76,1.36-11.41l-9.39-6.44c-0.47-0.91-1.61-1.23-2.49-0.71
		l-42.59,25.17c-0.18,0.11-0.34,0.24-0.47,0.4l-21.64,32.11c-1.31,1.58-11.73,8.09-7.68-5.86l23.8-44.55
		c0.04-0.09,0.08-0.18,0.14-0.26l50.78-81c0.06-0.1,0.13-0.19,0.21-0.28l33.03-35.02c0.27-0.28,0.43-0.65,0.48-1.03l2.3-21.07
		c0.04-0.37,0.2-0.72,0.45-1l12.17-13.56c0.8-0.89,0.52-2.3-0.56-2.81l-4.29-2.03c-0.73-0.34-1.59-0.16-2.12,0.45
		c0,0-20.93,20.49-23.63,27.46c-2.6,6.73-16.74,19.46-16.74,19.46s-10.17,18.67-18.4,21.4c-8.23,2.72-27.35,27.86-27.85,32.38
		c-0.5,4.52-25.09,26.87-25.47,27.77c-2.03,4.74-14.93,19.2-14.93,19.2c-0.97,1.13-1.58,2.51-1.76,3.99l-3.29,26.68
		c-0.05,0.38-0.21,0.73-0.48,1.01l-13.3,14.06c-0.29,0.31-0.69,0.5-1.11,0.55l-4.17,0.44c-1.32,0.14-2.32-1.15-1.86-2.4l13.82-37.45
		c0.37-1,0.91-1.92,1.6-2.72l26.41-30.87c2.17-2.53,2.34-6.22,0.42-8.95l-7.28-10.35c-2.37-3.37-7.34-3.42-9.78-0.1
		c0,0-11.19,6.21-20.09,26.79c-3.42,7.9-21.73,22.02-22.85,32.71c-1.12,10.69-17.57,21.19-17.57,21.19
		c-0.46,0.62-2.8,6.01-3.54,5.76l-1.85,0.95c-1.04,0.53-2.27-0.21-2.31-1.37c-0.23-7.14,1.02-7.93,3.28-11.06
		c0,0,2.01-0.81,12.98-18.68c5.91-9.62,19.41-28.96,30.62-44.77c9.61-13.56,17.53-24.52,17.53-24.52c2.58-3.58,7.6-4.33,11.12-1.67
		l16.13,12.18c0.74,0.56,1.79,0.46,2.41-0.24c0,0,12.77-4.65,15.57-12.37c3.52-9.7,26.23-28.05,26.23-28.05s11.9-18.85,19.71-23.81
		c4.25-2.7,33.92-42.74,33.92-42.74c0.33-0.37,0.79-0.58,1.28-0.6l26.6-0.76c0.58-0.02,1.12-0.32,1.44-0.81l26.13-39.59"/>
</g>
<g>
	<path d="M292.1,93.21c4.68-0.86,15.1-1.75,24.74-1.75c11.99,0,18.47,1.11,24.32,4.02c5.92,2.71,10.49,8.09,10.49,15.86
		c0,6.88-4.19,13.31-13.39,16.54v0.26c8.92,2.27,16.19,8.88,16.19,19.4c0,7.41-3.71,13.19-8.97,17.08
		c-6.11,4.46-16.09,6.88-32.54,6.88c-9.73,0-16.71-0.65-20.84-1.25V93.21z M310.47,122.91h6.58c10.69,0,15.84-3.66,15.84-9.31
		c0-6.02-5.12-8.73-13.73-8.73c-4.61,0-7.07,0.28-8.68,0.56V122.91z M310.47,157.59c1.94,0.31,4.38,0.33,7.94,0.33
		c8.67,0,16.42-2.87,16.42-11.24c0-7.84-7.6-10.67-17.38-10.67h-6.98V157.59z"/>
	<path d="M408.03,170.63l-1.12-5.68h-0.42c-3.92,4.58-10.19,7.07-17.5,7.07c-12.6,0-19.55-8.71-19.55-17.48
		c0-14.8,13.32-22.15,35.91-22.07v-0.55c0-2.54-1.3-7.22-11.24-7.19c-6.23,0-13.15,2.22-17.07,4.56l-3.42-11.69
		c4.24-2.42,12.4-5.35,23.63-5.35c19.53,0,26.58,10.9,26.58,24.89v19.43c0,5.73,0.32,11.08,0.93,14.05H408.03z M405.9,143.95
		c-10.74-0.1-18.01,2.32-18.01,8.73c0,4.24,2.95,6.52,7.54,6.52c4.95,0,8.94-3.37,10.14-7.09c0.28-0.98,0.33-2.14,0.33-3.17V143.95z
		"/>
	<path d="M457.8,113.65l8.77,26.84c1.58,4.73,2.64,9.01,3.56,13.17h0.42c0.94-4.34,1.99-8.43,3.45-13.17l8.29-26.84h19.82
		l-23.2,56.98h-18.89l-22.43-56.98H457.8z"/>
	<path d="M551.22,170.63l-1.12-5.68h-0.42c-3.92,4.58-10.2,7.07-17.5,7.07c-12.6,0-19.56-8.71-19.56-17.48
		c0-14.8,13.32-22.15,35.9-22.07v-0.55c0-2.54-1.3-7.22-11.24-7.19c-6.23,0-13.15,2.22-17.07,4.56l-3.42-11.69
		c4.24-2.42,12.4-5.35,23.63-5.35c19.53,0,26.58,10.9,26.58,24.89v19.43c0,5.73,0.33,11.08,0.93,14.05H551.22z M549.08,143.95
		c-10.74-0.1-18.01,2.32-18.01,8.73c0,4.24,2.95,6.52,7.54,6.52c4.95,0,8.93-3.37,10.14-7.09c0.28-0.98,0.33-2.14,0.33-3.17V143.95z
		"/>
	<path d="M588.45,132.98c0-9.27-0.12-14.56-0.47-19.33h15.89l0.6,11.28h0.44c3.07-9.08,10.77-12.68,16.75-12.68
		c1.67,0,2.5,0.02,3.96,0.35v17.17c-1.51-0.32-3.08-0.6-5.28-0.6c-7.62,0-12.08,3.86-13.12,9.3c-0.17,1.08-0.21,2.23-0.21,3.36v28.8
		h-18.56V132.98z"/>
	<path d="M661.23,97.58c0,4.95-3.7,9.04-10.03,9.04c-6.07,0-9.77-4.1-9.77-9.04c0-5.04,3.75-9.04,9.91-9.04
		S661.13,92.51,661.23,97.58z M642,170.63v-56.98h18.56v56.98H642z"/>
	<path d="M716.86,170.63l-1.12-5.68h-0.42c-3.92,4.58-10.2,7.07-17.5,7.07c-12.6,0-19.56-8.71-19.56-17.48
		c0-14.8,13.32-22.15,35.91-22.07v-0.55c0-2.54-1.3-7.22-11.24-7.19c-6.23,0-13.15,2.22-17.07,4.56l-3.42-11.69
		c4.24-2.42,12.39-5.35,23.62-5.35c19.53,0,26.58,10.9,26.58,24.89v19.43c0,5.73,0.33,11.08,0.93,14.05H716.86z M714.73,143.95
		c-10.74-0.1-18.01,2.32-18.01,8.73c0,4.24,2.95,6.52,7.54,6.52c4.95,0,8.93-3.37,10.14-7.09c0.28-0.98,0.33-2.14,0.33-3.17V143.95z
		"/>
	<path d="M331.93,220.13c-0.31-6.51-0.64-14.35-0.6-21.22h-0.21c-1.67,6.18-3.77,12.99-5.95,19.37l-7.4,21.83h-7.09L304,218.59
		c-1.98-6.47-3.78-13.33-5.1-19.67h-0.17c-0.22,6.6-0.52,14.66-0.9,21.52l-1.12,20.27h-8.59l3.36-50.43h12.11l6.57,20.26
		c1.81,5.96,3.43,11.94,4.64,17.56h0.22c1.35-5.51,3.09-11.67,5.04-17.6l7-20.22h11.95l2.9,50.43h-8.98L331.93,220.13z"/>
	<path d="M362.93,225.04c0.25,6.6,5.35,9.49,11.25,9.49c4.24,0,7.27-0.66,10.05-1.69l1.36,6.34c-3.12,1.32-7.44,2.31-12.73,2.31
		c-11.83,0-18.76-7.31-18.76-18.47c0-10.05,6.1-19.57,17.82-19.57c11.84,0,15.7,9.74,15.7,17.72c0,1.71-0.15,3.08-0.33,3.87H362.93z
		 M378.95,218.62c0.04-3.37-1.43-8.88-7.6-8.88c-5.67,0-8.03,5.15-8.44,8.88H378.95z"/>
	<path d="M433.79,187.58v42.91c0,3.73,0.13,7.74,0.3,10.22h-8.2l-0.41-5.77h-0.17c-2.17,4.08-6.57,6.59-11.83,6.59
		c-8.7,0-15.59-7.42-15.59-18.62c-0.06-12.21,7.57-19.46,16.33-19.46c4.99,0,8.58,2.06,10.21,4.75h0.15v-20.62H433.79z
		 M424.58,219.46c0-0.74-0.05-1.65-0.21-2.4c-0.82-3.55-3.78-6.47-7.92-6.47c-5.94,0-9.22,5.23-9.22,11.99
		c0,6.7,3.32,11.58,9.12,11.58c3.76,0,7.02-2.57,7.95-6.56c0.21-0.82,0.28-1.72,0.28-2.69V219.46z"/>
	<path d="M469.66,230.66c2.97,1.71,7.49,3.21,12.19,3.21c5.88,0,9.17-2.76,9.17-6.89c0-3.81-2.55-6.05-8.94-8.37
		c-8.33-2.96-13.65-7.43-13.65-14.65c0-8.26,6.91-14.48,17.85-14.48c5.47,0,9.46,1.16,12.09,2.49l-2.2,7.43
		c-1.82-0.95-5.34-2.39-10.08-2.39c-5.85,0-8.33,3.11-8.33,6.08c0,3.87,2.92,5.69,9.65,8.26c8.76,3.35,12.97,7.74,12.97,14.99
		c0,8.11-6.11,15.15-19.12,15.15c-5.34,0-10.88-1.52-13.63-3.21L469.66,230.66z"/>
	<path d="M520.45,225.04c0.25,6.6,5.35,9.49,11.25,9.49c4.24,0,7.27-0.66,10.05-1.69l1.36,6.34c-3.12,1.32-7.44,2.31-12.73,2.31
		c-11.83,0-18.76-7.31-18.76-18.47c0-10.05,6.1-19.57,17.82-19.57c11.84,0,15.7,9.74,15.7,17.72c0,1.71-0.15,3.08-0.33,3.87H520.45z
		 M536.47,218.62c0.04-3.37-1.43-8.88-7.6-8.88c-5.67,0-8.03,5.15-8.44,8.88H536.47z"/>
	<path d="M557.74,215.99c0-4.88-0.1-8.47-0.3-11.71h7.98l0.34,6.92h0.26c1.79-5.13,6.04-7.75,9.97-7.75c0.9,0,1.42,0.04,2.16,0.2
		v8.67c-0.79-0.17-1.59-0.26-2.7-0.26c-4.39,0-7.43,2.79-8.26,6.97c-0.16,0.81-0.24,1.79-0.24,2.78v18.89h-9.22V215.99z"/>
	<path d="M597.01,204.28l5.9,18.5c1.04,3.21,1.81,6.14,2.49,9.1h0.22c0.68-3.01,1.49-5.88,2.48-9.1l5.77-18.5h9.68l-13.91,36.43
		h-9.07l-13.53-36.43H597.01z"/>
	<path d="M644.13,194.08c0.01,2.75-1.99,4.97-5.25,4.97c-3.05,0-5.06-2.22-5.05-4.97c-0.01-2.81,2.06-4.98,5.16-4.98
		C642.12,189.11,644.1,191.25,644.13,194.08z M634.37,240.71v-36.43h9.22v36.43H634.37z"/>
	<path d="M685.42,239.61c-1.91,0.9-5.71,1.88-10.28,1.88c-11.42,0-18.78-7.33-18.78-18.63c0-10.91,7.45-19.38,20.27-19.38
		c3.4,0,6.79,0.74,8.9,1.66l-1.63,6.93c-1.48-0.72-3.69-1.42-6.97-1.42c-7.03,0-11.19,5.13-11.16,11.81
		c0,7.47,4.91,11.76,11.19,11.76c3.16,0,5.43-0.68,7.23-1.44L685.42,239.61z"/>
	<path d="M703.27,225.04c0.25,6.6,5.35,9.49,11.25,9.49c4.24,0,7.27-0.66,10.05-1.69l1.36,6.34c-3.12,1.32-7.44,2.31-12.73,2.31
		c-11.83,0-18.75-7.31-18.75-18.47c0-10.05,6.1-19.57,17.82-19.57c11.84,0,15.7,9.74,15.7,17.72c0,1.71-0.15,3.08-0.33,3.87H703.27z
		 M719.29,218.62c0.04-3.37-1.43-8.88-7.6-8.88c-5.67,0-8.03,5.15-8.44,8.88H719.29z"/>
</g>
</svg>
